<mxfile host="app.diagrams.net" modified="2023-03-29T10:59:36.881Z" agent="Mozilla/5.0 (Windows NT 10.0; Win64; x64) AppleWebKit/537.36 (KHTML, like Gecko) Chrome/111.0.0.0 Safari/537.36" version="21.1.1" etag="8XeRBHTJ7RSreIoD7RNz" type="github">
  <diagram name="第 1 页" id="KuIml-AkiOZRVEyt4xdX">
    <mxGraphModel>
      <root>
        <mxCell id="0" />
        <mxCell id="1" parent="0" />
      </root>
    </mxGraphModel>
  </diagram>
</mxfile>
